# xmcd
#
# Track frame offsets:
#	150
#	13625
#	32865
#	49165
#	69301
#	83330
#	87124
#	103181
#	118426
#	139089
#	157467
#	173424
#	187547
#	218910
#
# Disc length: 3136 seconds
#
# Revision: 1
# Processed by: cddbd v1.5.2PL0 Copyright (c) Steve Scherf et al.
# Submitted via: audiograbber 1.83.01
#
DISCID=b60c3e0e
DTITLE=Band of Horses - Cease to Begin (Japan Import)
DYEAR=2007
DGENRE=Indie
TTITLE0=Is there a Ghost
TTITLE1=Ode to LRC
TTITLE2=No one´s gonna Love you
TTITLE3=Detlef Schrempf
TTITLE4=The General Pacific
TTITLE5=Lamb on the Lam (in the City)
TTITLE6=Islands on the Coast
TTITLE7=Marry Song
TTITLE8=Cigerettes, Wedding Bands
TTITLE9=Windows Blues
TTITLE10=No one´s gonna Love you  (Live BBC  session)
TTITLE11=Is there a Ghost  (Live BBC  session)
TTITLE12=Act Together (Live BBC  session)
TTITLE13=Daten-CD
EXTD=+3 Live tracks  (Live BBC  session]\n+1 Video Enhanced CD
EXTT0=
EXTT1=
EXTT2=
EXTT3=
EXTT4=
EXTT5=
EXTT6=
EXTT7=
EXTT8=
EXTT9=
EXTT10=
EXTT11=
EXTT12=
EXTT13=
PLAYORDER=
